# xmcd
#
# Track frame offsets:
#	150
#	20442
#	39955
#	63770
#	80402
#	102870
#	118862
#	133925
#	152905
#	170757
#	188750
#	204000
#	219710
#	238162
#	250512
#
# Disc length: 3592 seconds
#
# Revision: 1
# Processed by: cddbd v1.5.1PL0 Copyright (c) Steve Scherf et al.
# Submitted via: CDex 1.50Beta5
#
DISCID=c80e060f
DTITLE=テレサ・テン - 全曲集 -生誕50周年記念- Disc 2
DYEAR=2003
DGENRE=Pop
TTITLE0=涙の条件
TTITLE1=悲しみと躍らせて
TTITLE2=愛の陽差し〜アモーレ・ミオ〜
TTITLE3=夕凪
TTITLE4=あなたと共にいきてゆく
TTITLE5=夜來香
TTITLE6=何日君再來
TTITLE7=人面桃花
TTITLE8=恨不相逢未嫁時
TTITLE9=莫忘今宵
TTITLE10=千言萬語
TTITLE11=月亮代表我的心
TTITLE12=但願人長久
TTITLE13=獨上西樓
TTITLE14=酒酔的探戈
EXTD=
EXTT0=
EXTT1=
EXTT2=
EXTT3=
EXTT4=
EXTT5=
EXTT6=
EXTT7=
EXTT8=
EXTT9=
EXTT10=
EXTT11=
EXTT12=
EXTT13=
EXTT14=
PLAYORDER=
